<svg width="92" height="49" viewBox="0 0 92 49" fill="none" xmlns="http://www.w3.org/2000/svg">
<path d="M7.65306 21.4548C6.49191 17.6561 7.40229 13.5267 10.0531 10.5685L11.6016 8.84041C12.7357 7.57469 14.2553 6.71794 15.9254 6.40267C17.6181 6.08311 19.3691 6.33802 20.9004 7.12694L26.6156 10.0713C28.8704 5.13228 34.3747 2.55798 39.6108 3.99362L46.5857 5.90603C46.5935 5.90816 46.597 5.91174 46.6018 5.90528C46.7724 5.67758 53.7329 -3.53189 60.119 1.50304C63.4967 4.16598 67.6717 10.421 69.6323 13.5237C70.39 14.7228 70.9934 16.005 71.4805 17.3371C73.7217 23.4669 73.269 30.2583 70.234 36.0364L69.7279 37H38.7755H5.78231L5.70233 36.9808C3.48162 36.448 1.59497 34.9906 0.518602 32.9764C0.513071 32.9661 0.509888 32.9546 0.509277 32.9429L0.408066 31.0004C0.172416 26.4776 3.23356 22.4444 7.65306 21.4548Z" fill="white"/>
<path d="M7.65306 21.4548C6.49191 17.6561 7.40229 13.5267 10.0531 10.5685L11.6016 8.84041C12.7357 7.57469 14.2553 6.71794 15.9254 6.40267C17.6181 6.08311 19.3691 6.33802 20.9004 7.12694L26.6156 10.0713C28.8704 5.13228 34.3747 2.55798 39.6108 3.99362L46.5857 5.90603C46.5935 5.90816 46.597 5.91174 46.6018 5.90528C46.7724 5.67758 53.7329 -3.53189 60.119 1.50304C63.4967 4.16598 67.6717 10.421 69.6323 13.5237C70.39 14.7228 70.9934 16.005 71.4805 17.3371C73.7217 23.4669 73.269 30.2583 70.234 36.0364L69.7279 37H38.7755H5.78231L5.70233 36.9808C3.48162 36.448 1.59497 34.9906 0.518602 32.9764C0.513071 32.9661 0.509888 32.9546 0.509277 32.9429L0.408066 31.0004C0.172416 26.4776 3.23356 22.4444 7.65306 21.4548Z" fill="url(#paint0_linear_34_603)" fill-opacity="0.8"/>
<path d="M24.6531 33.4548C23.4919 29.6561 24.4023 25.5267 27.0531 22.5685L28.6016 20.8404C29.7357 19.5747 31.2553 18.7179 32.9254 18.4027C34.6181 18.0831 36.3691 18.338 37.9004 19.1269L43.6156 22.0713C45.8704 17.1323 51.3747 14.558 56.6108 15.9936L63.5857 17.906C63.5935 17.9082 63.597 17.9117 63.6018 17.9053C63.7724 17.6776 70.7329 8.46811 77.119 13.503C80.4967 16.166 84.6717 22.421 86.6323 25.5237C87.39 26.7228 87.9934 28.005 88.4805 29.3371C90.7217 35.4669 90.269 42.2583 87.234 48.0364L86.7279 49H55.7755H22.7823L22.7023 48.9808C20.4816 48.448 18.595 46.9906 17.5186 44.9764C17.5131 44.9661 17.5099 44.9546 17.5093 44.9429L17.4081 43.0004C17.1724 38.4776 20.2336 34.4444 24.6531 33.4548Z" fill="white"/>
<path d="M24.6531 33.4548C23.4919 29.6561 24.4023 25.5267 27.0531 22.5685L28.6016 20.8404C29.7357 19.5747 31.2553 18.7179 32.9254 18.4027C34.6181 18.0831 36.3691 18.338 37.9004 19.1269L43.6156 22.0713C45.8704 17.1323 51.3747 14.558 56.6108 15.9936L63.5857 17.906C63.5935 17.9082 63.597 17.9117 63.6018 17.9053C63.7724 17.6776 70.7329 8.46811 77.119 13.503C80.4967 16.166 84.6717 22.421 86.6323 25.5237C87.39 26.7228 87.9934 28.005 88.4805 29.3371C90.7217 35.4669 90.269 42.2583 87.234 48.0364L86.7279 49H55.7755H22.7823L22.7023 48.9808C20.4816 48.448 18.595 46.9906 17.5186 44.9764C17.5131 44.9661 17.5099 44.9546 17.5093 44.9429L17.4081 43.0004C17.1724 38.4776 20.2336 34.4444 24.6531 33.4548Z" fill="url(#paint1_linear_34_603)" fill-opacity="0.8"/>
<defs>
<linearGradient id="paint0_linear_34_603" x1="2.75" y1="33.0098" x2="68.7505" y2="32.8375" gradientUnits="userSpaceOnUse">
<stop offset="0.442308" stop-color="#2F68C9"/>
<stop offset="1" stop-color="#444447" stop-opacity="0.3"/>
</linearGradient>
<linearGradient id="paint1_linear_34_603" x1="85.75" y1="44.6471" x2="19.7495" y2="44.8194" gradientUnits="userSpaceOnUse">
<stop offset="0.442308" stop-color="#2F68C9"/>
<stop offset="1" stop-color="#444447" stop-opacity="0.3"/>
</linearGradient>
</defs>
</svg>
