<svg width="35" height="26" viewBox="0 0 35 26" fill="none" xmlns="http://www.w3.org/2000/svg">
<path d="M3.1365 8.79294C2.66062 7.2361 3.03372 5.54375 4.12013 4.33133L4.75474 3.62312C5.21956 3.10438 5.84235 2.75325 6.52679 2.62405C7.22054 2.49308 7.93815 2.59755 8.56576 2.92088L10.9081 4.12757C11.8321 2.10339 14.088 1.04835 16.2339 1.63673L19.0925 2.4205C19.0957 2.42138 19.0971 2.42284 19.0991 2.4202C19.169 2.32688 22.0217 -1.44749 24.639 0.615999C26.0232 1.70737 27.7343 4.2709 28.5378 5.54251C28.8484 6.03395 29.0957 6.55941 29.2953 7.10539C30.2138 9.6176 30.0283 12.401 28.7844 14.769L28.577 15.1639H15.8916H2.3698L2.33702 15.1561C1.42689 14.9377 0.653674 14.3404 0.212542 13.5149C0.210275 13.5107 0.20897 13.506 0.20872 13.5012L0.16724 12.7051C0.0706621 10.8515 1.32523 9.19851 3.1365 8.79294Z" fill="white"/>
<path d="M3.1365 8.79294C2.66062 7.2361 3.03372 5.54375 4.12013 4.33133L4.75474 3.62312C5.21956 3.10438 5.84235 2.75325 6.52679 2.62405C7.22054 2.49308 7.93815 2.59755 8.56576 2.92088L10.9081 4.12757C11.8321 2.10339 14.088 1.04835 16.2339 1.63673L19.0925 2.4205C19.0957 2.42138 19.0971 2.42284 19.0991 2.4202C19.169 2.32688 22.0217 -1.44749 24.639 0.615999C26.0232 1.70737 27.7343 4.2709 28.5378 5.54251C28.8484 6.03395 29.0957 6.55941 29.2953 7.10539C30.2138 9.6176 30.0283 12.401 28.7844 14.769L28.577 15.1639H15.8916H2.3698L2.33702 15.1561C1.42689 14.9377 0.653674 14.3404 0.212542 13.5149C0.210275 13.5107 0.20897 13.506 0.20872 13.5012L0.16724 12.7051C0.0706621 10.8515 1.32523 9.19851 3.1365 8.79294Z" fill="url(#paint0_linear_51_2)" fill-opacity="0.8"/>
<g filter="url(#filter0_d_51_2)">
<path d="M14.9401 11.2513C14.5149 10.7523 14.578 10.0023 15.0806 9.58135L16.0831 8.7416C17.0202 7.95657 18.39 7.97272 19.3084 8.77963L19.6901 9.11497C20.3993 9.73806 21.4236 9.84801 22.2489 9.38962L22.9617 8.99367C24.0175 8.40727 25.3299 9.08478 25.4632 10.2851L25.4789 10.4255C25.6084 11.5914 26.9065 12.2267 27.9067 11.6138L28.5281 11.2331C28.6501 11.1583 28.8035 11.1569 28.9269 11.2295L29.0272 11.2885C29.875 11.7871 30.482 12.6107 30.7074 13.5681C30.7269 13.6513 30.7163 13.7387 30.6773 13.8148L29.732 15.66L28.7264 17.623H17.6614C16.2385 17.623 14.8276 17.3634 13.4979 16.8569L13.2368 14.4429C13.1692 13.8177 13.618 13.2548 14.2425 13.1813C15.1521 13.0743 15.5751 11.9966 14.9811 11.2995L14.9401 11.2513Z" fill="white"/>
<path d="M14.9401 11.2513C14.5149 10.7523 14.578 10.0023 15.0806 9.58135L16.0831 8.7416C17.0202 7.95657 18.39 7.97272 19.3084 8.77963L19.6901 9.11497C20.3993 9.73806 21.4236 9.84801 22.2489 9.38962L22.9617 8.99367C24.0175 8.40727 25.3299 9.08478 25.4632 10.2851L25.4789 10.4255C25.6084 11.5914 26.9065 12.2267 27.9067 11.6138L28.5281 11.2331C28.6501 11.1583 28.8035 11.1569 28.9269 11.2295L29.0272 11.2885C29.875 11.7871 30.482 12.6107 30.7074 13.5681C30.7269 13.6513 30.7163 13.7387 30.6773 13.8148L29.732 15.66L28.7264 17.623H17.6614C16.2385 17.623 14.8276 17.3634 13.4979 16.8569L13.2368 14.4429C13.1692 13.8177 13.618 13.2548 14.2425 13.1813C15.1521 13.0743 15.5751 11.9966 14.9811 11.2995L14.9401 11.2513Z" fill="url(#paint1_linear_51_2)" fill-opacity="0.8"/>
</g>
<defs>
<filter id="filter0_d_51_2" x="9.22998" y="8.16345" width="25.4871" height="17.4595" filterUnits="userSpaceOnUse" color-interpolation-filters="sRGB">
<feFlood flood-opacity="0" result="BackgroundImageFix"/>
<feColorMatrix in="SourceAlpha" type="matrix" values="0 0 0 0 0 0 0 0 0 0 0 0 0 0 0 0 0 0 127 0" result="hardAlpha"/>
<feOffset dy="4"/>
<feGaussianBlur stdDeviation="2"/>
<feComposite in2="hardAlpha" operator="out"/>
<feColorMatrix type="matrix" values="0 0 0 0 0 0 0 0 0 0 0 0 0 0 0 0 0 0 0.25 0"/>
<feBlend mode="normal" in2="BackgroundImageFix" result="effect1_dropShadow_51_2"/>
<feBlend mode="normal" in="SourceGraphic" in2="effect1_dropShadow_51_2" result="shape"/>
</filter>
<linearGradient id="paint0_linear_51_2" x1="2.86955" y1="22.4079" x2="29.9189" y2="22.3373" gradientUnits="userSpaceOnUse">
<stop offset="0.442308" stop-color="#2F68C9"/>
<stop offset="1" stop-color="#444447" stop-opacity="0.3"/>
</linearGradient>
<linearGradient id="paint1_linear_51_2" x1="28.5687" y1="17.623" x2="14.065" y2="17.5166" gradientUnits="userSpaceOnUse">
<stop offset="0.620192" stop-color="#2F68C9"/>
<stop offset="0.966346" stop-color="#444447" stop-opacity="0.5"/>
</linearGradient>
</defs>
</svg>
