<svg width="225" height="69" viewBox="0 0 225 69" fill="none" xmlns="http://www.w3.org/2000/svg">
<circle cx="172.989" cy="31.6737" r="20.724" fill="#F9A602"/>
<circle cx="172.975" cy="31.7182" r="17.0195" fill="#FCCB19"/>
<path d="M172.484 0L174.635 11.7828H170.332L172.484 0Z" fill="#F9A602"/>
<path d="M175.935 6.96252L177.262 11.7827H174.608L175.935 6.96252Z" fill="#F9A602"/>
<path d="M165.078 0.905997L168.926 12.2485L164.669 12.8766L165.078 0.905997Z" fill="#F9A602"/>
<path d="M169.509 7.29012L171.525 11.865L168.9 12.2524L169.509 7.29012Z" fill="#F9A602"/>
<path d="M155.184 5.14714L162.958 14.2588L159.236 16.4185L155.184 5.14714Z" fill="#F9A602"/>
<path d="M161.663 9.43711L165.23 12.9404L162.935 14.2724L161.663 9.43711Z" fill="#F9A602"/>
<path d="M180.662 2.23609L181.077 14.2065L176.82 13.5808L180.662 2.23609Z" fill="#F9A602"/>
<path d="M183.064 9.62641L183.677 14.5884L181.051 14.2025L183.064 9.62641Z" fill="#F9A602"/>
<path d="M189.807 5.80533L186.523 17.324L182.664 15.4199L189.807 5.80533Z" fill="#F9A602"/>
<path d="M189.821 13.5764L188.879 18.4862L186.498 17.3119L189.821 13.5764Z" fill="#F9A602"/>
<path d="M142 32.7421L153.783 30.5904V34.8937L142 32.7421Z" fill="#F9A602"/>
<path d="M148.962 29.2906L153.783 27.9635V30.6176L148.962 29.2906Z" fill="#F9A602"/>
<path d="M142.905 40.1477L154.248 36.2992L154.876 40.5564L142.905 40.1477Z" fill="#F9A602"/>
<path d="M149.29 35.7169L153.864 33.7004L154.252 36.3261L149.29 35.7169Z" fill="#F9A602"/>
<path d="M147.147 50.0417L156.259 42.2674L158.418 45.9895L147.147 50.0417Z" fill="#F9A602"/>
<path d="M151.437 43.5623L154.94 39.9954L156.272 42.2911L151.437 43.5623Z" fill="#F9A602"/>
<path d="M144.236 24.5631L156.206 24.1475L155.58 28.4051L144.236 24.5631Z" fill="#F9A602"/>
<path d="M151.626 22.1606L156.588 21.5485L156.202 24.1744L151.626 22.1606Z" fill="#F9A602"/>
<path d="M147.805 15.4189L159.324 18.7029L157.42 22.562L147.805 15.4189Z" fill="#F9A602"/>
<path d="M155.576 15.4044L160.486 16.3471L159.312 18.7273L155.576 15.4044Z" fill="#F9A602"/>
<path d="M204.684 31.3804L192.902 33.5321V29.2288L204.684 31.3804Z" fill="#F9A602"/>
<path d="M197.722 34.832L192.901 36.159V33.5049L197.722 34.832Z" fill="#F9A602"/>
<path d="M203.778 23.9748L192.436 27.8232L191.808 23.5661L203.778 23.9748Z" fill="#F9A602"/>
<path d="M197.394 28.4055L192.819 30.4219L192.432 27.7962L197.394 28.4055Z" fill="#F9A602"/>
<path d="M199.537 14.0806L190.426 21.8549L188.266 18.1328L199.537 14.0806Z" fill="#F9A602"/>
<path d="M195.247 20.5602L191.744 24.1271L190.412 21.8314L195.247 20.5602Z" fill="#F9A602"/>
<path d="M202.449 39.5594L190.478 39.975L191.104 35.7174L202.449 39.5594Z" fill="#F9A602"/>
<path d="M195.058 41.9618L190.096 42.5739L190.482 39.948L195.058 41.9618Z" fill="#F9A602"/>
<path d="M198.879 48.7043L187.36 45.4204L189.264 41.5613L198.879 48.7043Z" fill="#F9A602"/>
<path d="M191.108 48.7187L186.198 47.776L187.372 45.3958L191.108 48.7187Z" fill="#F9A602"/>
<path d="M173.135 62L170.984 50.2172H175.287L173.135 62Z" fill="#F9A602"/>
<path d="M169.684 55.0374L168.357 50.2172H171.011L169.684 55.0374Z" fill="#F9A602"/>
<path d="M180.541 61.0939L176.693 49.7514L180.95 49.1232L180.541 61.0939Z" fill="#F9A602"/>
<path d="M176.111 54.7099L174.094 50.135L176.72 49.7476L176.111 54.7099Z" fill="#F9A602"/>
<path d="M190.435 56.8528L182.661 47.7411L186.383 45.5815L190.435 56.8528Z" fill="#F9A602"/>
<path d="M183.956 52.5629L180.389 49.0596L182.685 47.7276L183.956 52.5629Z" fill="#F9A602"/>
<path d="M164.956 59.7642L164.541 47.7938L168.798 48.4195L164.956 59.7642Z" fill="#F9A602"/>
<path d="M162.554 52.3738L161.942 47.4119L164.568 47.7978L162.554 52.3738Z" fill="#F9A602"/>
<path d="M155.812 56.1946L159.096 44.676L162.956 46.58L155.812 56.1946Z" fill="#F9A602"/>
<path d="M155.798 48.4236L156.741 43.5138L159.121 44.6881L155.798 48.4236Z" fill="#F9A602"/>
<path d="M35 56.65C33.6333 58.4167 32.1333 59.8167 30.5 60.85C28.9 61.8833 27.2167 62.6167 25.45 63.05C23.6833 63.5167 21.9167 63.75 20.15 63.75C17.5833 63.75 15.1667 63.35 12.9 62.55C10.6667 61.7167 8.68333 60.5167 6.95 58.95C5.25 57.35 3.91667 55.4167 2.95 53.15C1.98333 50.8833 1.5 48.3 1.5 45.4C1.5 42.5 1.95 39.9167 2.85 37.65C3.75 35.35 5.05 33.4 6.75 31.8C8.45 30.1667 10.5167 28.9333 12.95 28.1C15.3833 27.2667 18.15 26.85 21.25 26.85C23.0833 26.85 24.8667 27.0333 26.6 27.4C28.3667 27.7333 29.9833 28.15 31.45 28.65C32.9167 29.1167 34.1167 29.5667 35.05 30L32.05 44.8H31.05L27.9 37.35C26.9667 35.15 26 33.3167 25 31.85C24.0333 30.3833 23.0167 29.2833 21.95 28.55C20.9167 27.8167 19.8333 27.45 18.7 27.45C17.9 27.45 17.1833 27.85 16.55 28.65C15.9167 29.4167 15.3833 30.4667 14.95 31.8C14.5167 33.1333 14.1833 34.65 13.95 36.35C13.7167 38.0167 13.6 39.7667 13.6 41.6C13.6 43.6667 13.85 45.7 14.35 47.7C14.85 49.6667 15.65 51.4667 16.75 53.1C17.8833 54.7 19.3333 55.9833 21.1 56.95C22.9 57.8833 25.0667 58.35 27.6 58.35C28.8333 58.35 30.0333 58.2 31.2 57.9C32.3667 57.5667 33.4667 57.0333 34.5 56.3L35 56.65ZM52.3223 37.25C55.4223 37.25 57.9389 37.85 59.8723 39.05C61.8389 40.25 63.2889 41.8 64.2223 43.7C65.1556 45.5667 65.6223 47.5667 65.6223 49.7H49.3223V49.2L54.7723 48.2C54.7723 45.9333 54.7223 44.0333 54.6223 42.5C54.5556 40.9333 54.3389 39.75 53.9723 38.95C53.6389 38.15 53.0723 37.75 52.2723 37.75C51.6056 37.75 51.0723 38.1 50.6723 38.8C50.2723 39.5 49.9723 40.6833 49.7723 42.35C49.6056 43.9833 49.5223 46.2667 49.5223 49.2C49.5223 50.4333 49.6556 51.7 49.9223 53C50.1889 54.3 50.6056 55.5167 51.1723 56.65C51.7389 57.75 52.4723 58.65 53.3723 59.35C54.3056 60.0167 55.4223 60.35 56.7223 60.35C57.3223 60.35 57.9723 60.2333 58.6723 60C59.4056 59.7667 60.1056 59.4167 60.7723 58.95C61.4723 58.4833 62.1056 57.9333 62.6723 57.3C63.2389 56.6667 63.6889 55.95 64.0223 55.15L64.7223 55.6C63.8223 57.4667 62.8056 58.95 61.6723 60.05C60.5389 61.1167 59.3556 61.9167 58.1223 62.45C56.8889 62.9833 55.6889 63.3333 54.5223 63.5C53.3889 63.6667 52.3556 63.75 51.4223 63.75C49.1223 63.75 47.1056 63.3833 45.3723 62.65C43.6389 61.8833 42.1889 60.8833 41.0223 59.65C39.8889 58.4167 39.0223 57.05 38.4223 55.55C37.8556 54.0167 37.5723 52.5 37.5723 51C37.5723 48.8333 37.9389 46.9 38.6723 45.2C39.4056 43.5 40.4223 42.0667 41.7223 40.9C43.0556 39.7 44.6223 38.8 46.4223 38.2C48.2223 37.5667 50.1889 37.25 52.3223 37.25ZM67.2016 63V62.5L69.7016 61.75V39.8H67.2016V39.25L81.4516 37.25V44.9L81.8516 45.3C82.2182 44.2667 82.6016 43.3167 83.0016 42.45C83.4349 41.5833 83.8682 40.8833 84.3016 40.35C85.0349 39.3167 85.9016 38.55 86.9016 38.05C87.9349 37.5167 89.1182 37.25 90.4516 37.25C91.4182 37.25 92.3849 37.45 93.3516 37.85C94.3182 38.25 95.1182 38.8667 95.7516 39.7C96.4182 40.5333 96.7516 41.6 96.7516 42.9C96.7516 43.9667 96.4849 44.9167 95.9516 45.75C95.4182 46.5833 94.6682 47.2333 93.7016 47.7C92.7682 48.1667 91.6682 48.4 90.4016 48.4C89.2682 48.4 88.2516 48.2 87.3516 47.8C86.4849 47.3667 85.8016 46.7833 85.3016 46.05C84.8016 45.3167 84.5516 44.4833 84.5516 43.55C84.5516 43.15 84.5849 42.8 84.6516 42.5C84.7516 42.1667 84.8349 41.8667 84.9016 41.6C85.0016 41.3 85.0516 41.05 85.0516 40.85C85.0516 40.6167 84.9849 40.5 84.8516 40.5C84.6516 40.5 84.4016 40.75 84.1016 41.25C83.8016 41.75 83.3682 42.65 82.8016 43.95C82.6016 44.45 82.3849 45.0833 82.1516 45.85C81.9182 46.5833 81.6849 47.3833 81.4516 48.25V61.75L83.9516 62.5V63H67.2016ZM113.279 37.25C115.545 37.25 117.495 37.45 119.129 37.85C120.762 38.2167 122.112 38.8 123.179 39.6C124.245 40.4 125.029 41.4 125.529 42.6C126.029 43.7667 126.279 45.15 126.279 46.75V61.4C126.279 61.6333 126.312 61.85 126.379 62.05C126.479 62.2167 126.645 62.3 126.879 62.3C127.079 62.3 127.345 62.2333 127.679 62.1C128.012 61.9667 128.412 61.7667 128.879 61.5V62C128.412 62.3333 127.829 62.6333 127.129 62.9C126.429 63.1667 125.679 63.3667 124.879 63.5C124.079 63.6667 123.295 63.75 122.529 63.75C120.129 63.75 118.195 63.1667 116.729 62C115.262 60.8 114.529 58.8 114.529 56C114.529 55.9333 114.529 55.8833 114.529 55.85C114.529 55.7833 114.529 55.7167 114.529 55.65C114.529 55.55 114.529 55.4333 114.529 55.3L114.179 55C113.579 56.3667 112.895 57.6 112.129 58.7C111.395 59.7667 110.579 60.6833 109.679 61.45C108.812 62.1833 107.895 62.75 106.929 63.15C105.962 63.55 104.962 63.75 103.929 63.75C102.629 63.75 101.479 63.5 100.479 63C99.4785 62.5 98.6785 61.8167 98.0785 60.95C97.5118 60.0833 97.2285 59.0833 97.2285 57.95C97.2285 55.15 98.7452 52.9667 101.779 51.4C104.845 49.8333 109.095 49.05 114.529 49.05C114.529 46.15 114.395 43.9333 114.129 42.4C113.895 40.8333 113.379 39.7667 112.579 39.2C111.812 38.6 110.629 38.3 109.029 38.3C108.229 38.3 107.512 38.3833 106.879 38.55C106.279 38.6833 105.795 38.85 105.429 39.05C105.095 39.25 104.929 39.4167 104.929 39.55C104.929 39.75 105.162 39.9667 105.629 40.2C106.095 40.4333 106.945 40.75 108.179 41.15C110.612 41.95 111.829 43.1667 111.829 44.8C111.829 46.2333 111.179 47.3333 109.879 48.1C108.612 48.8667 106.995 49.25 105.029 49.25C103.095 49.25 101.495 48.8667 100.229 48.1C98.9952 47.3333 98.3785 46.2333 98.3785 44.8C98.3785 43.8667 98.7785 42.95 99.5785 42.05C100.379 41.15 101.479 40.35 102.879 39.65C104.279 38.9167 105.862 38.3333 107.629 37.9C109.429 37.4667 111.312 37.25 113.279 37.25ZM114.529 49.55C112.929 49.55 111.645 49.9667 110.679 50.8C109.712 51.6333 109.012 52.6333 108.579 53.8C108.145 54.9667 107.929 56.05 107.929 57.05C107.929 57.65 107.979 58.15 108.079 58.55C108.212 58.95 108.379 59.25 108.579 59.45C108.812 59.65 109.095 59.75 109.429 59.75C109.762 59.75 110.129 59.6333 110.529 59.4C110.929 59.1667 111.345 58.8 111.779 58.3C112.245 57.7667 112.712 57.0833 113.179 56.25C113.645 55.3833 114.095 54.3333 114.529 53.1V49.55ZM163.65 62.5V63H147.4V62.5L149.4 62V44.25C149.4 43.2167 149.25 42.4167 148.95 41.85C148.65 41.2833 148.3 41 147.9 41C147.434 41 146.967 41.3333 146.5 42C146.067 42.6667 145.667 43.4667 145.3 44.4C144.934 45.3 144.617 46.15 144.35 46.95C144.117 47.7167 143.967 48.2333 143.9 48.5V62L145.9 62.5V63H129.65V62.5L132.15 62V28.3H129.65V27.75L143.9 25.75V45.4L144.3 45.8C144.867 44.2 145.55 42.75 146.35 41.45C147.15 40.15 148.117 39.1333 149.25 38.4C150.417 37.6333 151.834 37.25 153.5 37.25C155.034 37.25 156.3 37.4833 157.3 37.95C158.3 38.4167 159.067 39.0667 159.6 39.9C160.167 40.7 160.567 41.6333 160.8 42.7C161.034 43.7333 161.15 44.8333 161.15 46V62L163.65 62.5ZM172.91 34.5C171.577 34.5 170.393 34.3167 169.36 33.95C168.327 33.5833 167.51 33.0667 166.91 32.4C166.343 31.7333 166.06 30.9667 166.06 30.1C166.06 29.2333 166.343 28.4833 166.91 27.85C167.51 27.1833 168.327 26.6667 169.36 26.3C170.393 25.9333 171.577 25.75 172.91 25.75C174.277 25.75 175.477 25.9333 176.51 26.3C177.543 26.6667 178.343 27.1833 178.91 27.85C179.51 28.4833 179.81 29.2333 179.81 30.1C179.81 30.9667 179.51 31.7333 178.91 32.4C178.343 33.0667 177.543 33.5833 176.51 33.95C175.477 34.3167 174.277 34.5 172.91 34.5ZM164.66 63V62.5L167.16 62V39.8H164.66V39.25L178.91 37.25V62L181.41 62.5V63H164.66ZM216.534 62.5V63H200.284V62.5L202.284 62V44.25C202.284 43.2167 202.134 42.4167 201.834 41.85C201.534 41.2833 201.184 41 200.784 41C200.317 41 199.85 41.3333 199.384 42C198.95 42.6667 198.55 43.4667 198.184 44.4C197.817 45.3 197.5 46.15 197.234 46.95C197 47.7167 196.85 48.2333 196.784 48.5V62L198.784 62.5V63H182.534V62.5L185.034 62V39.8H182.534V39.25L196.784 37.25V45.4L197.184 45.8C197.75 44.2 198.434 42.75 199.234 41.45C200.034 40.15 201 39.1333 202.134 38.4C203.3 37.6333 204.717 37.25 206.384 37.25C207.917 37.25 209.184 37.4833 210.184 37.95C211.184 38.4167 211.95 39.0667 212.484 39.9C213.05 40.7 213.45 41.6333 213.684 42.7C213.917 43.7333 214.034 44.8333 214.034 46V62L216.534 62.5Z" fill="#F9802C"/>
</svg>
