<svg width="24" height="26" viewBox="0 0 24 26" fill="none" xmlns="http://www.w3.org/2000/svg">
<path d="M8.2766 0.947575C9.90232 0.321228 11.6296 0 13.3718 0H13.7142L12.2251 3.15374L11.6331 4.4076C11.0424 5.65865 10.7361 7.02498 10.7361 8.40847C10.7361 9.37343 10.8851 10.3326 11.1779 11.2521L11.4474 12.0983C11.6724 12.8046 12.0134 13.4707 12.4544 14.0666C13.273 15.1726 14.4133 16.0042 15.7172 16.4434C16.4094 16.6766 17.1348 16.7955 17.8652 16.7955H20.2485H23.7346L23.401 17.8252C22.7281 19.9018 21.4446 21.7272 19.7181 23.0629C18.8045 23.7696 17.7841 24.3259 16.6951 24.7109L16.5343 24.7678C14.2638 25.5704 11.8035 25.666 9.47756 25.0421L9.18667 24.9641C7.14785 24.4172 5.28549 23.3515 3.78108 21.8707C1.83998 19.9601 0.592878 17.4558 0.237831 14.7554L0.0969785 13.6841C-0.141085 11.8734 0.0607333 10.0321 0.68534 8.31597C1.16846 6.98861 1.89481 5.76295 2.82717 4.70182L2.98051 4.5273C4.32359 2.99871 6.01692 1.81817 7.91568 1.08663L8.2766 0.947575Z" fill="#FDFDFD"/>
<path d="M8.2766 0.947575C9.90232 0.321228 11.6296 0 13.3718 0H13.7142L12.2251 3.15374L11.6331 4.4076C11.0424 5.65865 10.7361 7.02498 10.7361 8.40847C10.7361 9.37343 10.8851 10.3326 11.1779 11.2521L11.4474 12.0983C11.6724 12.8046 12.0134 13.4707 12.4544 14.0666C13.273 15.1726 14.4133 16.0042 15.7172 16.4434C16.4094 16.6766 17.1348 16.7955 17.8652 16.7955H20.2485H23.7346L23.401 17.8252C22.7281 19.9018 21.4446 21.7272 19.7181 23.0629C18.8045 23.7696 17.7841 24.3259 16.6951 24.7109L16.5343 24.7678C14.2638 25.5704 11.8035 25.666 9.47756 25.0421L9.18667 24.9641C7.14785 24.4172 5.28549 23.3515 3.78108 21.8707C1.83998 19.9601 0.592878 17.4558 0.237831 14.7554L0.0969785 13.6841C-0.141085 11.8734 0.0607333 10.0321 0.68534 8.31597C1.16846 6.98861 1.89481 5.76295 2.82717 4.70182L2.98051 4.5273C4.32359 2.99871 6.01692 1.81817 7.91568 1.08663L8.2766 0.947575Z" fill="url(#paint0_linear_51_37)" fill-opacity="0.6"/>
<defs>
<linearGradient id="paint0_linear_51_37" x1="11.7346" y1="0" x2="11.7346" y2="26" gradientUnits="userSpaceOnUse">
<stop offset="0.634615" stop-color="#767272"/>
<stop offset="1" stop-color="#090909"/>
</linearGradient>
</defs>
</svg>
