<svg width="28" height="28" viewBox="0 0 28 28" fill="none" xmlns="http://www.w3.org/2000/svg">
<circle cx="13.3914" cy="14" r="6.54081" fill="#F5883C"/>
<circle cx="13.3914" cy="14" r="6.54081" fill="url(#paint0_linear_19_52)" fill-opacity="0.58"/>
<g filter="url(#filter0_f_19_52)">
<circle cx="13.3914" cy="14" r="7.6087" fill="url(#paint1_linear_19_52)" fill-opacity="0.39"/>
</g>
<rect x="23.7393" y="14.6087" width="3.65217" height="1.21739" rx="0.608696" fill="#FDD211"/>
<rect y="14.6087" width="3.65217" height="1.21739" rx="0.608696" fill="#FDD211"/>
<rect width="4.56522" height="1.52174" rx="0.76087" transform="matrix(0 1 1 0 12.4783 0)" fill="#FDD211"/>
<rect width="4.56522" height="1.52174" rx="0.76087" transform="matrix(0 1 1 0 12.4783 23.4348)" fill="#FDD211"/>
<rect x="20.4065" y="21.4972" width="3.65217" height="1.21739" rx="0.608696" transform="rotate(44.7 20.4065 21.4972)" fill="#FDD211"/>
<rect x="3.53247" y="4.79926" width="3.65217" height="1.21739" rx="0.608696" transform="rotate(44.7 3.53247 4.79926)" fill="#FDD211"/>
<rect width="4.56522" height="1.52174" rx="0.76087" transform="matrix(-0.703395 0.710799 0.710799 0.703395 22.678 3.1925)" fill="#FDD211"/>
<rect width="4.56522" height="1.52174" rx="0.76087" transform="matrix(-0.703395 0.710799 0.710799 0.703395 6.19409 19.8499)" fill="#FDD211"/>
<defs>
<filter id="filter0_f_19_52" x="1.78271" y="2.3913" width="23.2173" height="23.2174" filterUnits="userSpaceOnUse" color-interpolation-filters="sRGB">
<feFlood flood-opacity="0" result="BackgroundImageFix"/>
<feBlend mode="normal" in="SourceGraphic" in2="BackgroundImageFix" result="shape"/>
<feGaussianBlur stdDeviation="2" result="effect1_foregroundBlur_19_52"/>
</filter>
<linearGradient id="paint0_linear_19_52" x1="13.3914" y1="7.45923" x2="13.3914" y2="20.5408" gradientUnits="userSpaceOnUse">
<stop stop-color="#FFF701"/>
<stop offset="1" stop-color="#FFD900"/>
</linearGradient>
<linearGradient id="paint1_linear_19_52" x1="13.3914" y1="6.3913" x2="13.3914" y2="21.6087" gradientUnits="userSpaceOnUse">
<stop stop-color="#FFF701"/>
<stop offset="1" stop-color="#FFD900"/>
</linearGradient>
</defs>
</svg>
