<svg width="64" height="64" viewBox="0 0 64 64" fill="none" xmlns="http://www.w3.org/2000/svg">
<path d="M29.8325 23.9395H37.7168L36.4382 32.463H45.601L30.8979 64.0001L33.6681 36.9378H23.0137L29.8325 23.9395Z" fill="#FFEA00"/>
<path d="M29.8325 23.9395H37.7168L36.4382 32.463H45.601L30.8979 64.0001L33.6681 36.9378H23.0137L29.8325 23.9395Z" fill="url(#paint0_linear_34_622)"/>
<path d="M6.53061 17.7246C5.5436 14.5985 6.30901 11.1832 8.53579 8.77733L9.86427 7.34201C10.8561 6.27036 12.1687 5.54919 13.6052 5.28667C15.0419 5.02407 16.5251 5.23451 17.8322 5.8864L22.712 8.32028C24.6455 4.21996 29.2324 2.08652 33.614 3.24959L39.7532 4.87922C39.7598 4.88098 39.7628 4.88392 39.767 4.87849C39.9144 4.6879 45.853 -2.91713 51.3016 1.24172C54.1921 3.448 57.767 8.63889 59.4339 11.1945C60.0703 12.1701 60.579 13.217 60.9906 14.3067C62.9016 19.3667 62.5174 25.0078 59.938 29.762L59.5011 30.5672H33.0884H4.93424L4.79685 30.5353C2.94445 30.105 1.36181 28.9085 0.442802 27.2436C0.437914 27.2347 0.435092 27.2249 0.434548 27.2148L0.359107 25.813C0.152154 21.9676 2.76702 18.5405 6.53061 17.7246Z" fill="white"/>
<path d="M6.53061 17.7246C5.5436 14.5985 6.30901 11.1832 8.53579 8.77733L9.86427 7.34201C10.8561 6.27036 12.1687 5.54919 13.6052 5.28667C15.0419 5.02407 16.5251 5.23451 17.8322 5.8864L22.712 8.32028C24.6455 4.21996 29.2324 2.08652 33.614 3.24959L39.7532 4.87922C39.7598 4.88098 39.7628 4.88392 39.767 4.87849C39.9144 4.6879 45.853 -2.91713 51.3016 1.24172C54.1921 3.448 57.767 8.63889 59.4339 11.1945C60.0703 12.1701 60.579 13.217 60.9906 14.3067C62.9016 19.3667 62.5174 25.0078 59.938 29.762L59.5011 30.5672H33.0884H4.93424L4.79685 30.5353C2.94445 30.105 1.36181 28.9085 0.442802 27.2436C0.437914 27.2347 0.435092 27.2249 0.434548 27.2148L0.359107 25.813C0.152154 21.9676 2.76702 18.5405 6.53061 17.7246Z" fill="url(#paint1_linear_34_622)" fill-opacity="0.8"/>
<rect x="12.5977" y="35.02" width="1.70471" height="6.81883" rx="0.852354" transform="rotate(20.3336 12.5977 35.02)" fill="white"/>
<rect x="16.8594" y="41.4126" width="1.70471" height="6.81883" rx="0.852354" transform="rotate(20.3336 16.8594 41.4126)" fill="white"/>
<rect x="47.9705" y="37.1509" width="1.70471" height="6.81883" rx="0.852354" transform="rotate(20.3336 47.9705 37.1509)" fill="white"/>
<rect x="52.2322" y="43.5435" width="1.70471" height="6.81883" rx="0.852354" transform="rotate(20.3336 52.2322 43.5435)" fill="white"/>
<defs>
<linearGradient id="paint0_linear_34_622" x1="32.8157" y1="60.1645" x2="34.0943" y2="24.1525" gradientUnits="userSpaceOnUse">
<stop stop-color="#FFD900"/>
<stop offset="1" stop-color="#F9802C" stop-opacity="0.5"/>
</linearGradient>
<linearGradient id="paint1_linear_34_622" x1="2.34667" y1="27.2707" x2="58.6671" y2="27.1188" gradientUnits="userSpaceOnUse">
<stop offset="0.442308" stop-color="#2F68C9"/>
<stop offset="1" stop-color="#444447" stop-opacity="0.3"/>
</linearGradient>
</defs>
</svg>
